<svg id="Layer_1" data-name="Layer 1" xmlns="http://www.w3.org/2000/svg" viewBox="0 0 58 44.8182"><defs><style>.cls-1{fill:#00aaff;}</style></defs><path class="cls-1" d="M39.49917,16.86649l.00026-.0079a.88745.88745,0,0,0-.31143-.67486l-.029-.02393-.00876-.00688a.82864.82864,0,0,0-.10724-.07044L29.45705,10.548q-.0348-.02064-.071-.03825a.88982.88982,0,0,0-.85028.04258L18.94449,16.0896a.88794.88794,0,0,0-.44394.769l.00063.01918L18.5,16.899v11.0581a.88776.88776,0,0,0,.46843.78274l9.58761,5.53538q.02658.01536.054.02868l.00378.00171a.88446.88446,0,0,0,.08326.03486l.01175.00439c.02784.00968.05607.01771.08454.02452l.01618.00375c.02841.00625.057.01122.08581.01464l.01378.00134a.811.811,0,0,0,.1818,0l.01376-.00134c.02879-.00342.0574-.00841.08583-.01464l.01615-.00373c.02847-.00683.05671-.01486.08456-.02453l.01173-.0044a.8858.8858,0,0,0,.0832-.03483l.00386-.00176q.02733-.01337.054-.02866l9.5876-5.53538A.88774.88774,0,0,0,39.5,27.95706l0-11.06492ZM22.262,16.49693l6.52927-3.76971a.4177.4177,0,0,1,.41774,0l6.52916,3.76961a.41774.41774,0,0,1,0,.72354l-6.52926,3.76969a.41777.41777,0,0,1-.41774,0L22.262,17.22045A.41772.41772,0,0,1,22.262,16.49693Zm5.607,14.32848a.41677.41677,0,0,1-.62516.36093L20.72732,27.424a.41681.41681,0,0,1-.20838-.36094V19.53915a.41677.41677,0,0,1,.62515-.36093l6.51647,3.76232a.41677.41677,0,0,1,.20838.36093Zm9.61211-3.76232a.41681.41681,0,0,1-.20838.36094L30.7562,31.18634a.41676.41676,0,0,1-.62515-.36093V23.30147a.41677.41677,0,0,1,.20838-.36093l6.51646-3.76232a.41678.41678,0,0,1,.62516.36094Z"/></svg>